<svg xmlns="http://www.w3.org/2000/svg" xmlns:xlink="http://www.w3.org/1999/xlink" version="1.1" x="0px" y="0px" viewBox="0 0 595.3 1052.375" enable-background="new 0 0 595.3 841.9" xml:space="preserve"><path d="M543.5,612.9V190.8c0-19-15.5-34.4-34.4-34.4H86.9c-19,0-34.4,15.5-34.4,34.4v422.1c0,19,15.5,34.4,34.4,34.4h422.1  C528,647.4,543.5,631.9,543.5,612.9z M509.1,161.4c16.2,0,29.4,13.2,29.4,29.4v422.1c0,16.2-13.2,29.4-29.4,29.4H86.9  c-16.2,0-29.4-13.2-29.4-29.4V190.8c0-16.2,13.2-29.4,29.4-29.4H509.1z M131,529.2v8h343v-8H131z M131,399.2v8h343v-8H131z   M474,287.2H131v-8h343V287.2z"/><text x="0" y="856.9" fill="#000000" font-size="5px" font-weight="bold" font-family="'Helvetica Neue', Helvetica, Arial-Unicode, Arial, Sans-serif">Created by Jorge Mateo</text><text x="0" y="861.9" fill="#000000" font-size="5px" font-weight="bold" font-family="'Helvetica Neue', Helvetica, Arial-Unicode, Arial, Sans-serif">from the Noun Project</text></svg>